<svg xmlns="http://www.w3.org/2000/svg" width="1024" height="1024" viewBox="0 0 39 39" id="movie">
  <!-- White background -->
  <rect width="39" height="39" fill="#00000"/>
  <!-- Black icon -->
  <path fill="#ffffff" d="M32.686 39H6.315A6.323 6.323 0 0 1 0 32.683V6.317A6.323 6.323 0 0 1 6.315 0h26.371A6.322 6.322 0 0 1 39 6.317v26.367A6.322 6.322 0 0 1 32.686 39ZM27.651 9H12.35C10.499 9 9 10.5 9 12.349V27.65C9 29.501 10.5 31 12.349 31H27.65A3.349 3.349 0 0 0 31 27.651V12.35A3.349 3.349 0 0 0 27.651 9ZM13.89 18.778h-2.445v-2.445h2.445v2.445Zm-2.445 2.444h2.445v2.445h-2.445v-2.445Zm17.112-2.444H26.11v-2.445h2.445v2.445Zm-2.445 2.444h2.445v2.445H26.11v-2.445Zm2.445-8.873v1.54H26.11v-2.445h1.54a.904.904 0 0 1 .905.905Zm-16.207-.905h1.54v2.445h-2.445v-1.54a.904.904 0 0 1 .905-.905Zm-.905 16.207v-1.54h2.445v2.445h-1.54a.904.904 0 0 1-.905-.905Zm17.112 0c0 .5-.405.905-.905.905h-1.54V26.11h2.445v1.54Z"></path>
</svg>
